<svg width="28" height="29" viewBox="0 0 28 29" fill="none" xmlns="http://www.w3.org/2000/svg">
<path d="M12.8335 4.83333H4.66683C4.04799 4.83333 3.4545 5.08794 3.01691 5.54115C2.57933 5.99437 2.3335 6.60905 2.3335 7.24999V24.1667C2.3335 24.8076 2.57933 25.4223 3.01691 25.8755C3.4545 26.3287 4.04799 26.5833 4.66683 26.5833H21.0002C21.619 26.5833 22.2125 26.3287 22.6501 25.8755C23.0877 25.4223 23.3335 24.8076 23.3335 24.1667V15.7083M21.5835 3.02083C22.0476 2.54012 22.6771 2.27007 23.3335 2.27007C23.9899 2.27007 24.6194 2.54012 25.0835 3.02083C25.5476 3.50153 25.8084 4.15351 25.8084 4.83333C25.8084 5.51315 25.5476 6.16512 25.0835 6.64583L14.0002 18.125L9.3335 19.3333L10.5002 14.5L21.5835 3.02083Z" stroke="#1E1E1E" stroke-width="2" stroke-linecap="round" stroke-linejoin="round"/>
</svg>
