<svg width="21" height="24" viewBox="0 0 21 24" fill="none" xmlns="http://www.w3.org/2000/svg">
<path d="M19.503 9.46434H12.9675V1.77807C12.9675 0.834898 12.3171 0.0700073 11.5151 0.0700073H10.0628C9.26081 0.0700073 8.61044 0.834898 8.61044 1.77807V9.46434H2.0749C1.27294 9.46434 0.622559 10.2292 0.622559 11.1724V12.8805C0.622559 13.8236 1.27294 14.5885 2.0749 14.5885H8.61044V22.2748C8.61044 23.218 9.26081 23.9829 10.0628 23.9829H11.5151C12.3171 23.9829 12.9675 23.218 12.9675 22.2748V14.5885H19.503C20.305 14.5885 20.9553 13.8236 20.9553 12.8805V11.1724C20.9553 10.2292 20.305 9.46434 19.503 9.46434Z" fill="#3F4254"/>
</svg>
