<svg width="28" height="28" viewBox="0 0 28 28" fill="none" xmlns="http://www.w3.org/2000/svg">
<path d="M3.5 6.99999H5.83333M5.83333 6.99999H24.5M5.83333 6.99999L5.83333 23.3333C5.83333 23.9522 6.07917 24.5457 6.51675 24.9832C6.95434 25.4208 7.54783 25.6667 8.16667 25.6667H19.8333C20.4522 25.6667 21.0457 25.4208 21.4832 24.9832C21.9208 24.5457 22.1667 23.9522 22.1667 23.3333V6.99999M9.33333 6.99999V4.66666C9.33333 4.04782 9.57917 3.45433 10.0168 3.01675C10.4543 2.57916 11.0478 2.33333 11.6667 2.33333H16.3333C16.9522 2.33333 17.5457 2.57916 17.9832 3.01675C18.4208 3.45433 18.6667 4.04782 18.6667 4.66666V6.99999M11.6667 12.8333V19.8333M16.3333 12.8333V19.8333" stroke="#1E1E1E" stroke-width="2" stroke-linecap="round" stroke-linejoin="round"/>
</svg>
